<?xml version="1.0" encoding="UTF-8"?>
<!DOCTYPE svg PUBLIC "-//W3C//DTD SVG 1.1//EN" "http://www.w3.org/Graphics/SVG/1.1/DTD/svg11.dtd">
<!-- Creator: CorelDRAW 2020 (64-Bit) -->
<svg xmlns="http://www.w3.org/2000/svg" xml:space="preserve" width="0.520835in" height="0.520835in" version="1.1" style="shape-rendering:geometricPrecision; text-rendering:geometricPrecision; image-rendering:optimizeQuality; fill-rule:evenodd; clip-rule:evenodd"
viewBox="0 0 520.83 520.83"
 xmlns:xlink="http://www.w3.org/1999/xlink"
 xmlns:xodm="http://www.corel.com/coreldraw/odm/2003">
 <defs>
  <style type="text/css">
   <![CDATA[
    .fil0 {fill:none}
    .fil1 {fill:#A05DCE}
    .fil2 {fill:#D47CFD}
   ]]>
  </style>
 </defs>
 <g id="Layer_x0020_1">
  <metadata id="CorelCorpID_0Corel-Layer"/>
  <g id="_1759018289808">
   <polygon class="fil0" points="-0,520.83 520.83,520.83 520.83,0 -0,0 "/>
   <path class="fil1" d="M112.5 448.92c1.09,0.81 -0.1,0.38 1.93,0.59l283.32 -0.11c16.29,0 16.06,3.13 4.42,-25.57l-116.43 -289.45c-1.47,-3.66 -5.11,-14.65 -7.11,-16.95 -0.09,3.38 -14.02,35.92 -16.41,42.01l-116.42 289.31 -33.3 0.16z"/>
   <path class="fil2" d="M112.5 448.92l33.3 -0.16 116.42 -289.31c2.39,-6.09 16.32,-38.63 16.41,-42.01 -0.17,-2.47 -7.06,-18.32 -8.49,-21.87l-6.54 -16.36c-3.93,-10.13 -6.14,-0.63 -9.02,6.52l-137 340.59c-1.59,3.94 -3.07,7.74 -4.64,11.65 -1.18,2.93 -5.58,10.7 -0.44,10.96z"/>
  </g>
 </g>
</svg>
